<svg width="110" height="32" viewBox="0 0 110 32" fill="none" xmlns="http://www.w3.org/2000/svg">
<mask id="mask0_169_427" style="mask-type:luminance" maskUnits="userSpaceOnUse" x="0" y="0" width="110" height="32">
<path d="M109.499 0H0.699219V32H109.499V0Z" fill="white"/>
</mask>
<g mask="url(#mask0_169_427)">
<mask id="mask1_169_427" style="mask-type:luminance" maskUnits="userSpaceOnUse" x="1" y="5" width="108" height="22">
<path d="M109 5.33398H1V26.6673H109V5.33398Z" fill="white"/>
</mask>
<g mask="url(#mask1_169_427)">
<path d="M7.52294 14.2984L11.7246 10.1556L15.9285 14.3006L18.3733 11.89L11.7246 5.33398L5.07812 11.8878L7.52294 14.2984Z" fill="#A0A19C"/>
<path d="M5.79591 16.0005L3.35114 13.5898L0.90625 16.0006L3.35102 18.4112L5.79591 16.0005Z" fill="#A0A19C"/>
<path d="M7.52262 17.7032L11.7243 21.846L15.928 17.7012L18.3742 20.1105L18.373 20.1118L11.7243 26.6676L5.07764 20.114L5.07422 20.1107L7.52262 17.7032Z" fill="#A0A19C"/>
<path d="M20.0971 18.4127L22.542 16.002L20.0972 13.5913L17.6523 16.0021L20.0971 18.4127Z" fill="#A0A19C"/>
<path d="M14.2041 15.9989H14.2052L11.7243 13.5527L9.89086 15.3605L9.68016 15.5683L9.24561 15.9968L9.24219 16.0001L9.24561 16.0037L11.7243 18.4477L14.2052 16.0015L14.2063 16.0001L14.2041 15.9989Z" fill="#A0A19C"/>
<path d="M26.3535 10.5039H31.6709C32.9906 10.5039 33.9886 10.8379 34.6649 11.5058C35.1883 12.0231 35.45 12.6642 35.45 13.429V13.4613C35.45 13.7845 35.4095 14.0701 35.3279 14.3178C35.2466 14.5658 35.1379 14.7891 35.0021 14.9884C34.8666 15.1879 34.709 15.363 34.5299 15.5136C34.3507 15.6646 34.1581 15.794 33.9518 15.9015C34.6152 16.1495 35.1374 16.486 35.5181 16.9116C35.8987 17.3374 36.0892 17.9273 36.0892 18.6813V18.7135C36.0892 19.2308 35.9884 19.6832 35.7866 20.0712C35.5848 20.4589 35.2956 20.7823 34.9192 21.0409C34.5427 21.2996 34.0901 21.4933 33.561 21.6227C33.032 21.752 32.4457 21.8165 31.8023 21.8165H26.3535V10.5039ZM31.1393 15.0774C31.6967 15.0774 32.1393 14.9833 32.4669 14.7946C32.7946 14.6061 32.9585 14.3016 32.9585 13.8816V13.8492C32.9585 13.4723 32.8163 13.1842 32.5323 12.9847C32.2481 12.7853 31.8384 12.6856 31.3032 12.6856H28.8119V15.0774H31.1393ZM31.8114 19.635C32.3686 19.635 32.8054 19.5356 33.1225 19.3361C33.4394 19.1368 33.5979 18.8269 33.5979 18.4067V18.3745C33.5979 17.9974 33.4503 17.6985 33.1553 17.4774C32.8602 17.2569 32.385 17.1463 31.7293 17.1463H28.8119V19.6352L31.8114 19.635Z" fill="#A0A19C"/>
<path d="M39.2559 10.5039H41.7802V21.8168H39.2559V10.5039Z" fill="#A0A19C"/>
<path d="M45.6035 10.5039H47.9305L53.3067 17.4695V10.5039H55.798V21.8168H53.651L48.0946 14.6251V21.8168H45.6035V10.5039Z" fill="#A0A19C"/>
<path d="M63.4409 10.4219H65.7681L70.6854 21.8155H68.0465L66.9974 19.2783H62.1459L61.097 21.8155H58.5234L63.4409 10.4219ZM66.096 17.0801L64.5716 13.4117L63.0476 17.0801H66.096Z" fill="#A0A19C"/>
<path d="M73.4102 10.5039H75.7378L81.1136 17.4695V10.5039H83.6049V21.8168H81.4579L75.9015 14.6251V21.8168H73.4102V10.5039Z" fill="#A0A19C"/>
<path d="M92.6889 22.0092C91.8471 22.0092 91.0662 21.8583 90.3449 21.5568C89.6236 21.2554 89.0009 20.8431 88.4765 20.3204C87.9519 19.7979 87.5419 19.181 87.2473 18.47C86.9522 17.7588 86.8047 16.9992 86.8047 16.1911V16.1589C86.8047 15.3508 86.9522 14.5941 87.2473 13.8883C87.5421 13.1826 87.9519 12.5631 88.4765 12.0298C89.0007 11.4965 89.6292 11.0761 90.3611 10.7691C91.093 10.4621 91.9021 10.3086 92.7871 10.3086C93.3222 10.3086 93.8111 10.3519 94.2536 10.4378C94.6962 10.5243 95.0976 10.6426 95.4585 10.7934C95.8193 10.9443 96.1522 11.1275 96.4585 11.3428C96.7639 11.5585 97.0483 11.7954 97.3106 12.054L95.7046 13.8802C95.2561 13.4817 94.8001 13.169 94.3358 12.9428C93.8712 12.7167 93.3497 12.6035 92.7706 12.6035C92.2897 12.6035 91.8444 12.6952 91.4349 12.8783C91.0252 13.0615 90.6726 13.3145 90.3775 13.6377C90.0828 13.9609 89.8533 14.3355 89.689 14.7609C89.5255 15.1867 89.4437 15.6418 89.4437 16.1266V16.1587C89.4437 16.6435 89.5255 17.1016 89.689 17.5323C89.8533 17.9635 90.0795 18.3404 90.3695 18.6636C90.6588 18.9868 91.0086 19.2429 91.4182 19.4314C91.8283 19.6201 92.2789 19.7142 92.7706 19.7142C93.4264 19.7142 93.9804 19.5957 94.4339 19.3586C94.8875 19.1219 95.3384 18.7986 95.7863 18.3889L97.3926 19.989C97.0975 20.3015 96.7911 20.5817 96.4748 20.8293C96.1578 21.0773 95.8109 21.2899 95.4338 21.4679C95.057 21.6455 94.6441 21.7804 94.1966 21.8717C93.7482 21.9632 93.2458 22.0092 92.6889 22.0092Z" fill="#A0A19C"/>
<path d="M100.363 10.5039H109.001V12.7181H102.854V15.013H108.263V17.227H102.854V19.6028H109.083V21.8168H100.363V10.5039Z" fill="#A0A19C"/>
</g>
</g>
</svg>
