<svg width="59" height="32" viewBox="0 0 59 32" fill="none" xmlns="http://www.w3.org/2000/svg">
<mask id="mask0_169_448" style="mask-type:luminance" maskUnits="userSpaceOnUse" x="0" y="0" width="59" height="32">
<path d="M58.7008 0H0.300781V32H58.7008V0Z" fill="white"/>
</mask>
<g mask="url(#mask0_169_448)">
<path fill-rule="evenodd" clip-rule="evenodd" d="M0.800781 24.4435H7.24801C9.99613 24.4435 11.9641 22.9189 11.9641 20.1036C11.9641 18.091 10.7739 17.1383 9.84413 16.715C10.6231 16.3552 11.7485 15.2745 11.7485 13.6022C11.7485 11.0188 9.99613 9.36719 6.98879 9.36719H0.800781V24.4435ZM3.80815 11.9933H6.75071C8.02702 11.9933 8.74113 12.6922 8.74113 13.7291C8.74113 14.7671 8.02702 15.466 6.75071 15.466H3.80815V11.9933ZM3.80815 18.1129H6.94517C8.30742 18.1129 8.95677 18.9387 8.95677 19.9548C8.95677 20.972 8.30863 21.8186 6.94517 21.8186H3.80815V18.1129Z" fill="#A0A19C"/>
<path d="M21.1375 24.4435V18.2605L25.7666 9.36719H22.4999L19.6659 15.4441L16.7879 9.36719H13.5215L18.1517 18.2605V24.4435H21.1375Z" fill="#A0A19C"/>
<path fill-rule="evenodd" clip-rule="evenodd" d="M34.2906 24.4435H27.8438V9.36719H34.0317C37.0391 9.36719 38.7912 11.0188 38.7912 13.6022C38.7912 15.2745 37.6657 16.3552 36.8869 16.715C37.8167 17.1383 39.007 18.091 39.007 20.1036C39.007 22.9189 37.0391 24.4435 34.2906 24.4435ZM33.7936 11.9933H30.851V15.466H33.7936C35.07 15.466 35.7838 14.7671 35.7838 13.7291C35.7838 12.6922 35.07 11.9933 33.7936 11.9933ZM33.9878 18.1129H30.851V21.8186H33.9878C35.3511 21.8186 35.9997 20.972 35.9997 19.9548C35.9997 18.9387 35.3511 18.1129 33.9878 18.1129Z" fill="#A0A19C"/>
<path d="M54.9986 24.4447V11.9933H59.0231V9.36719H47.9668V11.9933H51.9913V24.4447H54.9986Z" fill="#A0A19C"/>
<path d="M42.2969 4.88867V19.9651H45.3042V4.88867H42.2969Z" fill="#A0A19C"/>
</g>
</svg>
