<svg width="89" height="20" viewBox="0 0 89 20" fill="none" xmlns="http://www.w3.org/2000/svg">
<mask id="mask0_169_466" style="mask-type:luminance" maskUnits="userSpaceOnUse" x="0" y="0" width="89" height="20">
<path d="M0.5 0H88.5V20H0.5V0Z" fill="white"/>
</mask>
<g mask="url(#mask0_169_466)">
<path fill-rule="evenodd" clip-rule="evenodd" d="M73.3536 5.94373H75.8528V3.46283H73.3536V5.94373ZM60.0701 10.0752C60.5476 8.81819 61.7705 7.92318 63.2044 7.92318C64.6381 7.92318 65.8609 8.81819 66.3387 10.0752H60.0701ZM63.2044 5.61655C60.0717 5.61655 57.5314 8.1379 57.5314 11.2483C57.5314 14.3586 60.0717 16.8796 63.2044 16.8796C65.3541 16.8796 67.2242 15.693 68.1868 13.9441L66.0906 12.9346C65.5081 13.9148 64.4339 14.5729 63.2044 14.5729C61.6509 14.5729 60.3451 13.5231 59.9662 12.0993H66.4424C66.4419 12.1003 66.4417 12.1018 66.4415 12.103H68.8134C68.8563 11.8242 68.8784 11.5387 68.8784 11.2483C68.8784 8.1379 66.3381 5.61655 63.2044 5.61655ZM69.5372 16.5793H72.0363V14.0984H69.5372V16.5793ZM73.3536 16.5793H75.8528V7.03438H73.3536V16.5793ZM82.8283 14.5729C80.9784 14.5729 79.4789 13.0843 79.4789 11.2483C79.4789 9.41176 80.9784 7.92318 82.8283 7.92318C84.6781 7.92318 86.1776 9.41176 86.1776 11.2483C86.1776 13.0843 84.6781 14.5729 82.8283 14.5729ZM82.8272 5.61655C79.6946 5.61655 77.1542 8.1379 77.1542 11.2483C77.1542 14.3586 79.6946 16.8796 82.8272 16.8796C85.9609 16.8796 88.5012 14.3586 88.5012 11.2483C88.5012 8.1379 85.9609 5.61655 82.8272 5.61655ZM30.5755 9.17234V11.7375H34.0699C33.8875 12.4704 33.5267 13.1273 33.0095 13.652C32.2293 14.4435 31.1475 14.8796 29.9632 14.8796C27.5056 14.8796 25.5059 12.8947 25.5059 10.4549C25.5059 8.01508 27.5056 6.03003 29.9632 6.03003C31.2796 6.03003 32.4897 6.58937 33.3286 7.55409L35.3293 5.93128C34.0028 4.38814 32.0347 3.4647 29.9632 3.4647C26.0806 3.4647 22.9219 6.60057 22.9219 10.4549C22.9219 14.3092 26.0806 17.4449 29.9632 17.4449C31.8483 17.4449 33.5861 16.7706 34.8566 15.4818C35.9227 14.4001 36.6293 12.8912 36.7651 11.3796C36.8314 10.6422 36.8375 9.90988 36.7984 9.17234H30.5755ZM43.305 14.5735C41.4552 14.5735 39.9555 13.0846 39.9555 11.2483C39.9555 9.41155 41.4552 7.92297 43.305 7.92297C45.1551 7.92297 46.6548 9.41155 46.6548 11.2483C46.6548 13.0846 45.1551 14.5735 43.305 14.5735ZM46.6552 6.71405C45.7162 6.03066 44.5584 5.62609 43.305 5.62609C40.1724 5.62609 37.6329 8.14724 37.6329 11.257C37.6329 14.3671 40.1724 16.8878 43.305 16.8878C44.5584 16.8878 45.7162 16.4835 46.6552 15.8001V16.5793H48.9774V5.93481H46.6552V6.71405ZM53.9624 3.46304H51.64V5.94373H50.2481V8.11944H51.64V13.8132C51.64 14.4011 51.7144 14.8957 51.862 15.2839C52.0074 15.6679 52.2298 15.9686 52.4942 16.2034C52.7621 16.4418 53.0764 16.6275 53.4491 16.7329C53.8278 16.8387 54.2456 16.8796 54.6872 16.8796C55.1442 16.8796 55.5518 16.8325 55.8996 16.7393C56.2225 16.6532 56.532 16.5314 56.82 16.3766V14.6235C56.3618 14.8202 55.9336 14.8914 55.445 14.914C54.9292 14.9381 54.6241 14.7918 54.3701 14.5516C54.1041 14.2999 53.9624 13.9719 53.9624 13.4217V8.11944H56.82V5.94373H53.9624V3.46304Z" fill="#A0A19C"/>
</g>
<mask id="mask1_169_466" style="mask-type:luminance" maskUnits="userSpaceOnUse" x="0" y="0" width="89" height="20">
<path d="M0.5 0H88.5V20H0.5V0Z" fill="white"/>
</mask>
<g mask="url(#mask1_169_466)">
<path fill-rule="evenodd" clip-rule="evenodd" d="M10.5738 15.4997C7.5139 15.4997 5.03333 13.0375 5.03333 9.99978C5.03333 6.96225 7.5139 4.49961 10.5738 4.49961V-0.000366211C5.01013 -0.000366211 0.5 4.47678 0.5 9.99978C0.5 15.5226 5.01013 19.9997 10.5738 19.9997C16.1373 19.9997 20.6476 15.5226 20.6476 9.99978H16.1143C16.1143 13.0375 13.6337 15.4997 10.5738 15.4997Z" fill="#A0A19C"/>
</g>
<mask id="mask2_169_466" style="mask-type:luminance" maskUnits="userSpaceOnUse" x="0" y="0" width="89" height="20">
<path d="M0.5 0H88.5V20H0.5V0Z" fill="white"/>
</mask>
<g mask="url(#mask2_169_466)">
<path fill-rule="evenodd" clip-rule="evenodd" d="M10.5742 9.99997H16.1147V4.5H10.5742V9.99997Z" fill="#A0A19C"/>
</g>
</svg>
