<svg width="57" height="22" viewBox="0 0 57 22" fill="none" xmlns="http://www.w3.org/2000/svg">
<path d="M9.76985 6.74847C9.83425 3.5109 8.03745 0.689858 7.10084 0.0116051C7.09647 0.0071502 7.01351 -0.0385119 7.02006 0.0884517C7.02006 0.0906792 7.01788 0.0906784 7.01788 0.0929059C6.92181 6.20832 3.84017 7.85662 2.16781 10.0985C-1.55024 15.0824 1.55214 20.769 5.57148 21.846C5.64025 21.8638 5.82583 21.9206 6.17842 21.9941C6.36181 22.0331 6.4153 21.8739 6.28103 21.6366C5.80072 20.7846 4.94598 19.3446 4.77678 17.4958C4.39144 13.2025 9.69452 10.5162 9.76985 6.74847Z" fill="#A0A19C"/>
<path d="M11.7958 8.82214C11.7642 8.79763 11.7194 8.79986 11.7151 8.84218C11.6299 9.62067 10.8407 11.2344 9.80254 12.7424C6.30717 17.8288 8.06796 20.1364 9.43466 21.7368C9.68683 22.033 9.81236 21.9684 9.94554 21.7568C10.07 21.5564 10.2577 21.3013 11.0655 20.9104C11.1911 20.8492 14.2432 19.1964 14.574 15.4332C14.8917 11.7913 12.6036 9.48925 11.7958 8.82214Z" fill="#A0A19C"/>
<path d="M29.949 7.89563V21.2803H27.1348V15.8732H21.7269V21.2803H18.8418V7.89563H21.7269V13.3027H27.1348V7.89563H29.949Z" fill="#A0A19C"/>
<path d="M42.9597 7.89563V10.5429H41.6203H38.9196V21.2792H36.0247V10.5429H33.3961H32.0566V7.89563H42.9597Z" fill="#A0A19C"/>
<path fill-rule="evenodd" clip-rule="evenodd" d="M53.2077 21.2936L49.9001 16.6361L46.6176 21.2736L43.4082 21.278L48.2735 14.4454L43.6811 7.89563H46.8883L56.4017 21.2936H53.2077Z" fill="#A0A19C"/>
<path d="M50.8008 10.8905L52.388 13.1402L56.1486 7.89233H52.9589L50.8008 10.8905Z" fill="#A0A19C"/>
</svg>
