<svg width="1200" height="208" viewBox="0 0 1200 208" fill="none" xmlns="http://www.w3.org/2000/svg">
<g opacity="0.1">
<path d="M0 204.964V0H36.9307L111.811 172.068H112.83L187.964 0H224.64V204.964H200.19V25.5572H199.171L121.234 204.964H101.878L23.9413 25.3041H22.9225V204.964H0Z" fill="url(#paint0_radial_169_49)"/>
<path d="M326.224 208C310.602 208 297.019 204.795 285.473 198.384C273.926 191.805 264.927 182.612 258.475 170.803C252.192 158.994 249.051 145.077 249.051 129.051C249.051 113.025 252.192 99.1079 258.475 87.2993C264.757 75.4907 273.672 66.3812 285.218 59.9708C296.934 53.3917 310.602 50.1022 326.224 50.1022C342.184 50.1022 355.853 53.3074 367.229 59.7178C378.775 66.1281 387.69 75.2376 393.972 87.0462C400.255 98.8548 403.396 112.856 403.396 129.051C403.396 145.077 400.255 159.079 393.972 171.056C387.69 182.865 378.775 191.974 367.229 198.384C355.683 204.795 342.015 208 326.224 208ZM326.224 187.251C343.033 187.251 356.108 182.19 365.446 172.068C374.785 161.778 379.455 147.439 379.455 129.051C379.455 110.495 374.785 96.1557 365.446 86.0341C356.108 75.9124 343.033 70.8516 326.224 70.8516C309.584 70.8516 296.509 75.9968 287.001 86.2871C277.662 96.4088 272.992 110.663 272.992 129.051C272.992 147.439 277.662 161.778 287.001 172.068C296.509 182.19 309.584 187.251 326.224 187.251Z" fill="url(#paint1_radial_169_49)"/>
<path d="M491.815 208C476.193 208 462.61 204.795 451.064 198.384C439.517 191.805 430.518 182.612 424.066 170.803C417.783 158.994 414.642 145.077 414.642 129.051C414.642 113.025 417.783 99.1079 424.066 87.2993C430.348 75.4907 439.263 66.3812 450.809 59.9708C462.525 53.3917 476.193 50.1022 491.815 50.1022C507.775 50.1022 521.444 53.3074 532.82 59.7178C544.367 66.1281 553.281 75.2376 559.563 87.0462C565.846 98.8548 568.987 112.856 568.987 129.051C568.987 145.077 565.846 159.079 559.563 171.056C553.281 182.865 544.367 191.974 532.82 198.384C521.274 204.795 507.606 208 491.815 208ZM491.815 187.251C508.624 187.251 521.699 182.19 531.038 172.068C540.376 161.778 545.046 147.439 545.046 129.051C545.046 110.495 540.376 96.1557 531.038 86.0341C521.699 75.9124 508.624 70.8516 491.815 70.8516C475.175 70.8516 462.1 75.9968 452.592 86.2871C443.253 96.4088 438.584 110.663 438.584 129.051C438.584 147.439 443.253 161.778 452.592 172.068C462.1 182.19 475.175 187.251 491.815 187.251Z" fill="url(#paint2_radial_169_49)"/>
<path d="M593.987 204.964V78.4428H581.252V53.1387H607.74V75.9124H618.438C623.531 67.4777 630.663 61.1517 639.832 56.9343C649.171 52.5483 659.783 50.3552 671.669 50.3552C690.856 50.3552 706.137 55.9222 717.514 67.056C728.89 78.1898 734.578 93.0349 734.578 111.591V204.964H710.637V115.134C710.637 100.795 706.647 89.914 698.666 82.4915C690.856 74.9002 679.394 71.1046 664.282 71.1046C649.34 71.1046 637.879 74.9002 629.899 82.4915C621.918 89.914 617.928 100.795 617.928 115.134V204.964H593.987Z" fill="url(#paint3_radial_169_49)"/>
<path d="M766.53 204.964V0H864.588C876.473 0 886.746 2.10868 895.406 6.32603C904.235 10.5434 911.112 16.6164 916.036 24.545C920.96 32.3049 923.422 41.5831 923.422 52.3796C923.422 64.1882 919.686 73.8881 912.215 81.4793C904.744 88.9019 896.255 93.541 886.746 95.3966V96.4088C893.538 97.0835 900.499 99.3609 907.631 103.241C914.932 106.952 921.045 112.519 925.969 119.942C931.063 127.195 933.61 136.389 933.61 147.523C933.61 159.163 930.808 169.285 925.205 177.888C919.771 186.492 912.215 193.155 902.537 197.878C892.859 202.602 881.737 204.964 869.172 204.964H766.53ZM790.981 184.214H863.569C877.662 184.214 888.783 181.009 896.934 174.599C905.084 168.019 909.159 158.573 909.159 146.258C909.159 133.775 905.084 124.412 896.934 118.17C888.953 111.929 877.917 108.808 863.823 108.808H790.981V184.214ZM790.981 88.5645H861.786C873.332 88.5645 882.416 85.6123 889.038 79.708C895.66 73.8037 898.971 65.4534 898.971 54.6569C898.971 43.6918 895.66 35.3414 889.038 29.6058C882.416 23.7015 873.332 20.7494 861.786 20.7494H790.981V88.5645Z" fill="url(#paint4_radial_169_49)"/>
<path d="M1021.42 208C1005.8 208 992.215 204.795 980.668 198.384C969.122 191.805 960.123 182.612 953.671 170.803C947.388 158.994 944.247 145.077 944.247 129.051C944.247 113.025 947.388 99.1079 953.671 87.2993C959.953 75.4907 968.868 66.3812 980.414 59.9708C992.13 53.3917 1005.8 50.1022 1021.42 50.1022C1037.38 50.1022 1051.05 53.3074 1062.43 59.7178C1073.97 66.1281 1082.89 75.2376 1089.17 87.0462C1095.45 98.8548 1098.59 112.856 1098.59 129.051C1098.59 145.077 1095.45 159.079 1089.17 171.056C1082.89 182.865 1073.97 191.974 1062.43 198.384C1050.88 204.795 1037.21 208 1021.42 208ZM1021.42 187.251C1038.23 187.251 1051.3 182.19 1060.64 172.068C1069.98 161.778 1074.65 147.439 1074.65 129.051C1074.65 110.495 1069.98 96.1557 1060.64 86.0341C1051.3 75.9124 1038.23 70.8516 1021.42 70.8516C1004.78 70.8516 991.705 75.9968 982.197 86.2871C972.858 96.4088 968.188 110.663 968.188 129.051C968.188 147.439 972.858 161.778 982.197 172.068C991.705 182.19 1004.78 187.251 1021.42 187.251Z" fill="url(#paint5_radial_169_49)"/>
<path d="M1153.14 204.964C1146 204.964 1140.4 203.192 1136.33 199.65C1132.42 195.938 1130.47 190.456 1130.47 183.202V71.3577H1101.18V53.1387H1130.72V7.59123H1154.16V53.1387H1195.92V71.3577H1154.41V186.238H1200V204.964H1153.14Z" fill="url(#paint6_radial_169_49)"/>
</g>
<defs>
<radialGradient id="paint0_radial_169_49" cx="0" cy="0" r="1" gradientUnits="userSpaceOnUse" gradientTransform="translate(590.306 91.1448) scale(754.545 227.505)">
<stop stop-color="#010101"/>
<stop offset="1" stop-color="white"/>
</radialGradient>
<radialGradient id="paint1_radial_169_49" cx="0" cy="0" r="1" gradientUnits="userSpaceOnUse" gradientTransform="translate(590.306 91.1448) scale(754.545 227.505)">
<stop stop-color="#010101"/>
<stop offset="1" stop-color="white"/>
</radialGradient>
<radialGradient id="paint2_radial_169_49" cx="0" cy="0" r="1" gradientUnits="userSpaceOnUse" gradientTransform="translate(590.306 91.1448) scale(754.545 227.505)">
<stop stop-color="#010101"/>
<stop offset="1" stop-color="white"/>
</radialGradient>
<radialGradient id="paint3_radial_169_49" cx="0" cy="0" r="1" gradientUnits="userSpaceOnUse" gradientTransform="translate(590.306 91.1448) scale(754.545 227.505)">
<stop stop-color="#010101"/>
<stop offset="1" stop-color="white"/>
</radialGradient>
<radialGradient id="paint4_radial_169_49" cx="0" cy="0" r="1" gradientUnits="userSpaceOnUse" gradientTransform="translate(590.306 91.1448) scale(754.545 227.505)">
<stop stop-color="#010101"/>
<stop offset="1" stop-color="white"/>
</radialGradient>
<radialGradient id="paint5_radial_169_49" cx="0" cy="0" r="1" gradientUnits="userSpaceOnUse" gradientTransform="translate(590.306 91.1448) scale(754.545 227.505)">
<stop stop-color="#010101"/>
<stop offset="1" stop-color="white"/>
</radialGradient>
<radialGradient id="paint6_radial_169_49" cx="0" cy="0" r="1" gradientUnits="userSpaceOnUse" gradientTransform="translate(590.306 91.1448) scale(754.545 227.505)">
<stop stop-color="#010101"/>
<stop offset="1" stop-color="white"/>
</radialGradient>
</defs>
</svg>
