<svg width="20" height="20" viewBox="0 0 20 20" fill="none" xmlns="http://www.w3.org/2000/svg">
<path d="M1.66602 5.83325L5.99422 8.71872C6.24392 8.88519 6.36877 8.96842 6.50385 9.02739C6.62374 9.07972 6.74937 9.11776 6.87816 9.14072C7.02326 9.16658 7.17331 9.16658 7.47342 9.16658H12.5253C12.8254 9.16658 12.9754 9.16658 13.1205 9.14072C13.2493 9.11776 13.375 9.07972 13.4949 9.02739C13.6299 8.96842 13.7548 8.88518 14.0045 8.71872L18.3327 5.83325M5.66602 16.6666H14.3327C15.7328 16.6666 16.4329 16.6666 16.9677 16.3941C17.4381 16.1544 17.8205 15.772 18.0602 15.3016C18.3327 14.7668 18.3327 14.0667 18.3327 12.6666V7.33325C18.3327 5.93312 18.3327 5.23305 18.0602 4.69828C17.8205 4.22787 17.4381 3.84542 16.9677 3.60574C16.4329 3.33325 15.7328 3.33325 14.3327 3.33325H5.66602C4.26588 3.33325 3.56582 3.33325 3.03104 3.60574C2.56063 3.84542 2.17818 4.22787 1.9385 4.69828C1.66602 5.23305 1.66602 5.93312 1.66602 7.33325V12.6666C1.66602 14.0667 1.66602 14.7668 1.9385 15.3016C2.17818 15.772 2.56063 16.1544 3.03104 16.3941C3.56582 16.6666 4.26588 16.6666 5.66602 16.6666Z" stroke="#1B1818" stroke-width="1.5" stroke-linecap="round" stroke-linejoin="round"/>
</svg>
